<svg id="svg" version="1.1" xmlns="http://www.w3.org/2000/svg" xmlns:xlink="http://www.w3.org/1999/xlink" width="400" height="224" viewBox="0, 0, 400,224"><g id="svgg"><path id="path0" d="M133.733 88.461 C 133.395 88.870,133.687 90.291,134.228 90.867 C 134.583 91.244,134.748 91.862,134.926 93.468 C 135.103 95.063,135.272 95.694,135.620 96.067 C 135.955 96.426,136.124 97.015,136.243 98.230 C 136.354 99.361,136.573 100.169,136.923 100.734 C 137.288 101.326,137.484 102.085,137.594 103.340 C 137.714 104.709,137.860 105.229,138.236 105.630 C 138.602 106.019,138.775 106.601,138.931 107.971 C 139.074 109.222,139.286 109.993,139.608 110.429 C 139.938 110.875,140.132 111.601,140.259 112.865 C 140.391 114.168,140.578 114.852,140.937 115.337 C 141.307 115.838,141.476 116.488,141.606 117.913 C 141.743 119.417,141.881 119.921,142.262 120.302 C 142.528 120.567,142.748 120.910,142.752 121.064 C 142.788 122.525,143.254 124.695,143.646 125.225 C 143.971 125.664,144.166 126.398,144.293 127.655 C 144.426 128.975,144.611 129.640,144.983 130.144 C 145.367 130.664,145.518 131.234,145.599 132.475 C 145.678 133.700,145.839 134.317,146.230 134.902 C 146.597 135.450,146.826 136.256,146.990 137.575 C 147.153 138.890,147.356 139.605,147.657 139.928 C 147.965 140.259,148.132 140.874,148.239 142.073 C 148.337 143.177,148.537 143.964,148.822 144.368 C 149.291 145.034,149.692 146.775,149.692 148.145 C 149.692 148.738,149.843 149.143,150.182 149.458 C 150.560 149.811,150.734 150.374,150.947 151.929 C 151.131 153.271,151.371 154.131,151.666 154.507 C 151.981 154.906,152.157 155.596,152.269 156.868 C 152.376 158.078,152.561 158.828,152.833 159.164 L 153.238 159.664 165.078 159.664 L 176.919 159.664 177.075 157.774 C 177.194 156.341,177.352 155.720,177.729 155.211 C 178.112 154.693,178.265 154.076,178.393 152.533 C 178.522 150.975,178.672 150.376,179.067 149.841 C 179.457 149.314,179.610 148.719,179.724 147.285 C 179.838 145.851,179.991 145.257,180.381 144.729 C 180.777 144.194,180.927 143.595,181.056 142.036 C 181.186 140.463,181.334 139.881,181.741 139.330 C 182.146 138.782,182.296 138.197,182.422 136.677 C 182.547 135.171,182.699 134.570,183.092 134.039 C 183.479 133.515,183.638 132.907,183.756 131.493 C 183.871 130.120,184.066 129.350,184.505 128.538 C 184.961 127.693,185.098 127.125,185.099 126.073 C 185.100 125.005,185.246 124.412,185.770 123.361 C 186.294 122.311,186.441 121.718,186.442 120.650 C 186.442 119.623,186.582 119.020,187.002 118.230 C 187.365 117.547,187.613 116.624,187.708 115.603 C 187.890 113.651,188.388 112.848,189.000 113.521 C 190.285 114.936,190.739 116.049,190.927 118.239 C 191.070 119.907,191.223 120.551,191.598 121.058 C 191.962 121.550,192.131 122.223,192.274 123.752 C 192.417 125.279,192.587 125.955,192.949 126.445 C 193.325 126.953,193.477 127.604,193.629 129.355 C 193.783 131.129,193.921 131.713,194.276 132.091 C 194.621 132.458,194.781 133.086,194.954 134.753 C 195.122 136.376,195.303 137.100,195.657 137.580 C 196.025 138.077,196.167 138.689,196.277 140.246 C 196.395 141.907,196.509 142.361,196.919 142.798 C 197.333 143.238,197.452 143.722,197.612 145.621 C 197.771 147.504,197.893 148.006,198.295 148.434 C 198.696 148.860,198.808 149.317,198.914 150.948 C 199.017 152.548,199.150 153.101,199.586 153.750 C 200.017 154.392,200.158 154.966,200.268 156.524 C 200.380 158.114,200.503 158.600,200.912 159.076 L 201.418 159.664 213.139 159.664 L 224.859 159.664 225.102 158.050 C 225.246 157.092,225.511 156.253,225.753 155.986 C 226.036 155.672,226.220 154.947,226.357 153.599 C 226.511 152.077,226.665 151.530,227.080 151.037 C 227.497 150.541,227.634 150.049,227.739 148.669 C 227.837 147.373,227.996 146.758,228.362 146.263 C 228.785 145.691,229.173 143.849,229.234 142.129 C 229.239 141.975,229.452 141.640,229.707 141.385 C 230.066 141.027,230.218 140.459,230.382 138.876 C 230.549 137.261,230.698 136.719,231.088 136.304 C 231.476 135.891,231.616 135.387,231.738 133.965 C 231.854 132.612,232.020 131.981,232.393 131.476 C 232.755 130.986,232.942 130.308,233.074 129.000 C 233.199 127.757,233.397 127.007,233.712 126.581 C 234.021 126.163,234.234 125.375,234.373 124.131 C 234.521 122.809,234.720 122.107,235.085 121.612 C 235.462 121.103,235.632 120.474,235.747 119.161 C 235.862 117.852,236.033 117.219,236.407 116.713 C 236.782 116.206,236.950 115.580,237.063 114.271 C 237.174 112.975,237.344 112.334,237.708 111.842 C 238.058 111.368,238.261 110.645,238.406 109.351 C 238.554 108.028,238.734 107.395,239.065 107.042 C 239.402 106.681,239.575 106.051,239.732 104.609 C 239.872 103.325,240.104 102.406,240.414 101.904 C 240.679 101.476,240.941 100.566,241.016 99.816 C 241.206 97.920,241.300 97.556,241.707 97.149 C 242.141 96.714,242.452 95.479,242.460 94.159 C 242.465 93.203,242.726 92.480,243.257 91.949 C 243.687 91.519,243.919 88.742,243.550 88.432 C 242.907 87.892,231.300 88.317,230.855 88.897 C 230.647 89.169,230.066 89.482,229.564 89.593 C 229.063 89.703,228.407 90.013,228.108 90.281 C 226.245 91.948,224.320 93.971,224.190 94.401 C 224.107 94.676,223.849 95.110,223.617 95.363 C 223.385 95.617,223.080 96.424,222.938 97.156 C 222.797 97.888,222.487 98.703,222.249 98.967 C 221.900 99.354,221.780 99.975,221.624 102.197 C 221.464 104.468,221.347 105.061,220.949 105.599 C 220.552 106.135,220.433 106.728,220.278 108.935 C 220.133 111.006,219.977 111.833,219.597 112.560 C 219.230 113.261,219.057 114.121,218.923 115.925 C 218.786 117.752,218.618 118.580,218.241 119.286 C 217.853 120.015,217.705 120.785,217.579 122.735 C 217.447 124.765,217.319 125.402,216.910 126.065 C 216.498 126.732,216.374 127.357,216.246 129.412 C 216.120 131.455,215.994 132.093,215.590 132.747 C 215.200 133.379,215.062 134.026,214.962 135.703 C 214.778 138.785,214.032 139.569,213.138 137.619 C 212.933 137.172,212.584 136.536,212.361 136.206 C 212.088 135.799,211.887 134.857,211.740 133.297 C 211.569 131.478,211.426 130.887,211.065 130.503 C 210.703 130.118,210.567 129.553,210.419 127.832 C 210.273 126.129,210.124 125.502,209.738 124.980 C 209.352 124.458,209.209 123.861,209.088 122.257 C 208.965 120.633,208.826 120.060,208.424 119.515 C 208.027 118.979,207.878 118.381,207.748 116.810 C 207.624 115.317,207.449 114.581,207.074 113.975 C 206.697 113.364,206.522 112.620,206.388 111.053 C 206.249 109.436,206.095 108.798,205.719 108.290 C 205.341 107.779,205.188 107.141,205.047 105.488 C 204.908 103.873,204.749 103.192,204.395 102.711 C 204.052 102.245,203.868 101.505,203.710 99.970 C 203.541 98.324,203.395 97.776,203.037 97.442 C 202.786 97.208,202.516 96.618,202.438 96.131 C 202.361 95.644,202.032 94.947,201.709 94.581 C 201.385 94.215,200.667 93.352,200.112 92.664 C 199.557 91.975,198.738 91.218,198.291 90.982 C 197.844 90.745,197.421 90.401,197.350 90.217 C 197.280 90.034,196.791 89.767,196.264 89.626 C 195.737 89.484,195.010 89.118,194.648 88.814 L 193.990 88.260 189.362 88.332 L 184.735 88.403 184.003 89.020 C 183.600 89.359,183.005 89.636,182.680 89.636 C 182.354 89.636,181.835 89.884,181.521 90.191 C 181.208 90.496,180.171 91.502,179.216 92.426 C 178.261 93.351,177.479 94.255,177.479 94.436 C 177.479 94.617,177.274 94.908,177.023 95.084 C 176.727 95.291,176.471 95.869,176.294 96.728 C 176.145 97.456,175.811 98.321,175.552 98.649 C 175.185 99.115,175.053 99.686,174.951 101.261 C 174.829 103.144,174.557 104.129,174.070 104.447 C 173.958 104.521,173.776 105.535,173.666 106.700 C 173.448 109.000,173.326 109.491,172.823 110.076 C 172.628 110.304,172.409 111.307,172.285 112.541 C 172.143 113.961,171.928 114.871,171.608 115.406 C 171.277 115.960,171.085 116.808,170.956 118.295 C 170.812 119.954,170.658 120.571,170.229 121.208 C 169.787 121.865,169.663 122.390,169.571 124.003 C 169.481 125.583,169.357 126.126,168.964 126.658 C 168.581 127.177,168.429 127.805,168.287 129.466 C 168.146 131.103,167.991 131.758,167.624 132.255 C 167.247 132.765,167.104 133.399,166.959 135.214 C 166.733 138.036,166.530 138.487,165.487 138.487 C 164.288 138.487,163.993 137.827,163.750 134.602 C 163.591 132.486,163.425 131.622,163.005 130.735 C 162.667 130.020,162.463 129.182,162.460 128.494 C 162.453 126.695,162.070 124.576,161.673 124.137 C 161.406 123.842,161.245 123.018,161.098 121.197 C 160.874 118.414,160.774 117.935,160.297 117.391 C 160.085 117.150,159.906 116.121,159.777 114.415 C 159.624 112.385,159.475 111.637,159.104 111.036 C 158.733 110.436,158.583 109.689,158.431 107.675 C 158.279 105.661,158.130 104.914,157.759 104.314 C 157.388 103.712,157.239 102.965,157.085 100.931 C 156.923 98.777,156.808 98.234,156.429 97.830 C 156.176 97.561,155.880 96.866,155.772 96.285 C 155.649 95.628,155.362 95.033,155.012 94.709 C 154.703 94.422,154.379 93.995,154.291 93.760 C 154.203 93.526,153.484 92.779,152.693 92.101 C 151.901 91.423,150.978 90.604,150.641 90.280 C 150.304 89.956,149.651 89.624,149.190 89.542 C 148.707 89.456,148.256 89.211,148.123 88.964 C 147.798 88.356,147.195 88.301,140.205 88.237 C 135.408 88.193,133.913 88.244,133.733 88.461 " stroke="none" fill="#0c324b" fill-rule="evenodd"></path><path id="path1" d="M0.000 112.045 L 0.000 224.090 200.000 224.090 L 400.000 224.090 400.000 112.045 L 400.000 0.000 200.000 0.000 L 0.000 0.000 0.000 112.045 M266.902 64.207 L 267.563 64.549 267.563 69.910 C 267.563 75.704,267.100 79.478,266.242 80.672 C 266.021 80.980,265.670 81.561,265.462 81.963 C 264.975 82.904,262.848 85.031,261.907 85.518 C 261.505 85.726,260.924 86.075,260.616 86.295 C 259.563 87.046,256.580 87.395,251.187 87.398 C 248.424 87.400,246.057 87.476,245.929 87.566 C 245.419 87.925,244.507 90.286,244.268 91.866 C 244.128 92.784,243.829 93.843,243.601 94.219 C 243.374 94.594,243.119 95.576,243.035 96.399 C 242.950 97.222,242.679 98.281,242.432 98.752 C 242.186 99.223,241.844 100.447,241.672 101.473 C 241.501 102.499,241.168 103.658,240.933 104.050 C 240.698 104.442,240.442 105.408,240.365 106.197 C 240.287 106.987,239.985 108.146,239.693 108.774 C 239.401 109.402,239.095 110.519,239.013 111.256 C 238.931 111.993,238.628 113.102,238.341 113.721 C 238.053 114.340,237.751 115.451,237.670 116.190 C 237.588 116.930,237.321 117.938,237.075 118.431 C 236.829 118.924,236.516 120.084,236.378 121.008 C 236.240 121.933,235.899 123.143,235.621 123.697 C 235.342 124.252,235.047 125.351,234.965 126.139 C 234.883 126.927,234.581 128.036,234.293 128.604 C 234.002 129.179,233.704 130.281,233.621 131.092 C 233.539 131.894,233.275 132.887,233.033 133.299 C 232.792 133.712,232.489 134.821,232.360 135.764 C 232.231 136.707,231.926 137.819,231.684 138.235 C 231.441 138.652,231.151 139.714,231.039 140.596 C 230.809 142.407,230.659 142.919,230.198 143.457 C 230.021 143.663,229.779 144.621,229.660 145.586 C 229.539 146.565,229.249 147.669,229.004 148.086 C 228.762 148.497,228.462 149.556,228.337 150.439 C 228.212 151.322,227.918 152.413,227.683 152.863 C 227.449 153.314,227.147 154.468,227.014 155.428 C 226.880 156.389,226.571 157.514,226.327 157.928 C 226.082 158.342,225.882 158.855,225.882 159.067 C 225.882 159.279,225.725 159.676,225.534 159.950 L 225.185 160.448 213.107 160.448 C 198.756 160.448,199.865 160.656,199.552 157.909 C 199.470 157.190,199.215 156.282,198.984 155.892 C 198.739 155.475,198.461 154.317,198.312 153.090 C 198.163 151.870,197.884 150.702,197.641 150.289 C 197.412 149.899,197.118 148.731,196.989 147.693 C 196.860 146.655,196.556 145.395,196.315 144.892 C 196.073 144.389,195.767 143.096,195.635 142.020 C 195.494 140.873,195.214 139.757,194.960 139.326 C 194.705 138.893,194.434 137.808,194.303 136.690 C 194.178 135.632,193.875 134.384,193.617 133.875 C 193.359 133.364,193.095 132.276,193.018 131.410 C 192.943 130.557,192.648 129.295,192.362 128.605 C 192.077 127.914,191.740 126.553,191.615 125.579 C 191.489 124.606,191.185 123.406,190.938 122.913 C 190.691 122.420,190.398 121.201,190.287 120.204 C 190.176 119.207,189.938 118.149,189.756 117.851 C 189.575 117.554,189.294 116.882,189.131 116.359 C 188.703 114.979,188.537 115.173,188.361 117.255 C 188.263 118.415,188.013 119.528,187.690 120.241 C 187.407 120.867,187.103 122.077,187.015 122.930 C 186.927 123.784,186.624 124.986,186.341 125.602 C 186.058 126.218,185.757 127.378,185.672 128.179 C 185.587 128.980,185.285 130.140,185.001 130.756 C 184.717 131.373,184.415 132.583,184.332 133.445 C 184.247 134.314,183.947 135.514,183.660 136.134 C 183.374 136.751,183.076 137.908,182.997 138.707 C 182.918 139.505,182.649 140.564,182.400 141.060 C 182.151 141.555,181.845 142.768,181.720 143.754 C 181.595 144.739,181.293 145.950,181.048 146.443 C 180.803 146.936,180.500 148.146,180.375 149.132 C 180.251 150.118,179.948 151.328,179.703 151.821 C 179.458 152.314,179.156 153.501,179.033 154.459 C 178.795 156.303,178.542 157.181,178.186 157.401 C 178.067 157.475,177.899 158.042,177.814 158.662 C 177.550 160.582,178.524 160.448,164.852 160.448 C 151.003 160.448,151.853 160.567,151.650 158.601 C 151.582 157.943,151.308 156.986,151.041 156.473 C 150.773 155.960,150.458 154.804,150.341 153.905 C 150.223 153.005,149.930 151.905,149.689 151.460 C 149.448 151.015,149.135 149.855,148.994 148.883 C 148.854 147.910,148.613 146.964,148.459 146.779 C 148.068 146.307,147.739 145.103,147.576 143.539 C 147.499 142.805,147.301 142.048,147.136 141.858 C 146.729 141.390,146.398 140.210,146.235 138.642 C 146.156 137.880,145.915 137.089,145.656 136.737 C 145.373 136.352,145.121 135.450,144.959 134.238 C 144.809 133.117,144.538 132.110,144.297 131.773 C 144.070 131.457,143.786 130.458,143.658 129.524 C 143.532 128.599,143.224 127.436,142.974 126.938 C 142.725 126.439,142.428 125.297,142.315 124.399 C 142.203 123.501,141.963 122.597,141.782 122.391 C 141.358 121.908,141.237 121.478,140.952 119.451 C 140.823 118.533,140.574 117.624,140.400 117.431 C 140.032 117.025,139.621 115.404,139.613 114.328 C 139.610 113.920,139.355 113.050,139.045 112.396 C 138.736 111.742,138.391 110.480,138.280 109.591 C 138.168 108.703,137.923 107.806,137.735 107.598 C 137.363 107.187,136.933 105.586,136.924 104.580 C 136.921 104.233,136.670 103.425,136.367 102.782 C 136.063 102.140,135.753 101.012,135.677 100.275 C 135.602 99.538,135.301 98.431,135.008 97.815 C 134.716 97.199,134.381 95.975,134.263 95.096 C 134.146 94.216,133.882 93.240,133.676 92.927 C 132.655 91.368,132.560 87.480,133.532 86.960 C 134.410 86.491,143.599 86.656,145.210 87.171 C 145.982 87.417,146.906 87.619,147.263 87.619 C 148.050 87.619,149.468 88.181,149.468 88.493 C 149.468 88.617,149.824 88.817,150.259 88.937 C 150.694 89.057,151.403 89.440,151.835 89.788 C 153.074 90.786,155.070 92.744,155.070 92.962 C 155.070 93.070,155.373 93.540,155.742 94.006 C 156.112 94.471,156.415 95.009,156.415 95.201 C 156.415 95.393,156.672 95.922,156.987 96.377 C 157.420 97.001,157.604 97.635,157.738 98.968 C 157.836 99.939,158.093 101.075,158.310 101.494 C 158.539 101.938,158.795 103.199,158.923 104.517 C 159.043 105.761,159.331 107.283,159.563 107.899 C 160.026 109.133,160.441 111.435,160.451 112.829 C 160.455 113.322,160.661 114.172,160.909 114.719 C 161.174 115.303,161.484 116.786,161.663 118.323 C 161.831 119.760,162.128 121.246,162.325 121.626 C 162.521 122.006,162.825 123.510,162.999 124.968 C 163.174 126.426,163.473 127.922,163.664 128.292 C 163.855 128.662,164.119 129.922,164.251 131.093 C 164.635 134.500,164.649 134.548,165.368 134.972 L 166.028 135.362 166.131 134.628 C 166.562 131.551,166.783 130.473,167.078 130.023 C 167.265 129.739,167.517 128.627,167.638 127.554 C 167.760 126.481,168.058 125.191,168.301 124.688 C 168.544 124.185,168.849 122.925,168.979 121.888 C 169.109 120.851,169.409 119.564,169.646 119.029 C 169.883 118.494,170.184 117.182,170.315 116.115 C 170.446 115.047,170.750 113.763,170.991 113.262 C 171.232 112.760,171.530 111.553,171.654 110.578 C 171.913 108.536,172.045 108.029,172.437 107.563 C 172.593 107.378,172.830 106.283,172.963 105.129 C 173.097 103.975,173.402 102.613,173.643 102.103 C 173.883 101.594,174.182 100.379,174.306 99.405 C 174.443 98.341,174.701 97.401,174.953 97.052 C 175.183 96.732,175.496 96.046,175.648 95.526 C 175.799 95.007,176.102 94.452,176.320 94.294 C 176.539 94.135,176.844 93.693,176.999 93.311 C 177.473 92.144,181.120 88.964,181.983 88.964 C 182.187 88.964,182.492 88.797,182.662 88.593 C 183.048 88.127,184.242 87.619,184.950 87.619 C 185.246 87.619,186.131 87.409,186.918 87.153 C 188.441 86.657,191.281 86.634,191.869 87.113 C 192.027 87.243,192.902 87.463,193.813 87.603 C 194.991 87.784,195.660 88.017,196.128 88.410 C 196.489 88.715,196.961 88.964,197.176 88.964 C 197.391 88.964,197.979 89.317,198.483 89.748 C 198.987 90.179,199.505 90.532,199.636 90.532 C 199.766 90.532,199.991 90.754,200.136 91.026 C 200.282 91.297,200.714 91.833,201.097 92.216 C 202.337 93.458,203.025 94.427,203.025 94.933 C 203.025 95.205,203.285 95.736,203.602 96.113 C 204.016 96.605,204.239 97.225,204.393 98.315 C 204.511 99.149,204.803 100.235,205.041 100.728 C 205.279 101.221,205.575 102.518,205.699 103.610 C 205.823 104.701,206.036 105.729,206.172 105.894 C 206.544 106.342,207.053 108.440,207.056 109.538 C 207.058 110.092,207.293 110.999,207.608 111.667 C 207.933 112.355,208.217 113.469,208.303 114.398 C 208.384 115.261,208.647 116.359,208.888 116.839 C 209.129 117.319,209.431 118.529,209.559 119.528 C 209.688 120.527,210.034 122.000,210.330 122.801 C 210.625 123.602,210.956 125.025,211.066 125.963 C 211.176 126.901,211.420 127.910,211.610 128.204 C 211.976 128.773,212.437 130.939,212.437 132.089 C 212.437 132.469,212.629 133.138,212.864 133.577 C 213.099 134.015,213.417 134.792,213.570 135.303 C 213.932 136.510,214.229 136.299,214.231 134.833 C 214.234 133.137,214.625 130.909,215.132 129.706 C 215.375 129.129,215.578 128.171,215.582 127.578 C 215.591 126.401,216.020 124.167,216.542 122.577 C 216.724 122.022,216.976 120.530,217.101 119.261 C 217.238 117.874,217.472 116.736,217.687 116.407 C 217.903 116.079,218.145 114.899,218.295 113.449 C 218.432 112.122,218.738 110.532,218.976 109.916 C 219.213 109.300,219.503 107.829,219.620 106.648 C 219.737 105.467,220.085 103.780,220.393 102.899 C 220.701 102.018,220.953 100.816,220.954 100.228 C 220.955 98.980,221.295 97.617,221.707 97.204 C 221.867 97.045,222.068 96.613,222.155 96.244 C 222.399 95.208,222.780 94.342,222.992 94.342 C 223.098 94.342,223.377 93.964,223.613 93.501 C 223.986 92.772,225.108 91.625,227.516 89.512 C 227.860 89.210,228.324 88.964,228.548 88.964 C 228.771 88.964,229.216 88.720,229.537 88.423 C 230.116 87.887,230.440 87.781,232.381 87.494 C 232.936 87.412,233.531 87.230,233.703 87.090 C 233.911 86.921,235.691 86.814,238.970 86.774 C 241.693 86.740,244.137 86.665,244.400 86.608 C 244.873 86.504,244.879 86.429,244.966 79.722 L 245.054 72.941 246.033 70.980 C 246.571 69.902,247.088 69.020,247.181 69.020 C 247.274 69.020,247.550 68.682,247.794 68.268 C 248.281 67.443,251.095 65.210,251.648 65.210 C 251.839 65.210,252.397 64.991,252.888 64.724 C 254.551 63.818,265.378 63.419,266.902 64.207 " stroke="none" fill="#fbfbfb" fill-rule="evenodd"></path><path id="path2" d="M254.790 64.326 C 254.359 64.431,253.606 64.724,253.118 64.976 C 252.630 65.228,252.038 65.434,251.804 65.434 C 250.698 65.434,247.496 68.710,246.302 71.063 L 245.395 72.850 245.370 79.506 C 245.357 83.167,245.418 86.349,245.506 86.576 C 245.659 86.969,246.012 86.986,252.301 86.902 C 259.442 86.808,258.819 86.902,261.451 85.524 C 262.478 84.987,265.322 82.224,265.322 81.764 C 265.322 81.608,265.583 81.104,265.902 80.644 C 266.754 79.414,267.099 76.339,267.108 69.896 L 267.115 64.610 266.544 64.350 C 265.871 64.043,256.031 64.023,254.790 64.326 " stroke="none" fill="#f45b63" fill-rule="evenodd"></path><path id="path3" d="M254.566 64.077 C 254.134 64.165,253.380 64.456,252.888 64.724 C 252.397 64.991,251.839 65.210,251.648 65.210 C 251.095 65.210,248.281 67.443,247.794 68.268 C 247.550 68.682,247.274 69.020,247.181 69.020 C 247.088 69.020,246.571 69.902,246.033 70.980 L 245.054 72.941 244.966 79.722 C 244.879 86.429,244.873 86.504,244.400 86.608 C 244.137 86.665,241.693 86.740,238.970 86.774 C 235.691 86.814,233.911 86.921,233.703 87.090 C 233.531 87.230,232.936 87.412,232.381 87.494 C 230.440 87.781,230.116 87.887,229.537 88.423 C 229.216 88.720,228.771 88.964,228.548 88.964 C 228.324 88.964,227.860 89.210,227.516 89.512 C 225.108 91.625,223.986 92.772,223.613 93.501 C 223.377 93.964,223.098 94.342,222.992 94.342 C 222.780 94.342,222.399 95.208,222.155 96.244 C 222.068 96.613,221.867 97.045,221.707 97.204 C 221.295 97.617,220.955 98.980,220.954 100.228 C 220.953 100.816,220.701 102.018,220.393 102.899 C 220.085 103.780,219.737 105.467,219.620 106.648 C 219.503 107.829,219.213 109.300,218.976 109.916 C 218.738 110.532,218.432 112.122,218.295 113.449 C 218.145 114.899,217.903 116.079,217.687 116.407 C 217.472 116.736,217.238 117.874,217.101 119.261 C 216.976 120.530,216.724 122.022,216.542 122.577 C 216.020 124.167,215.591 126.401,215.582 127.578 C 215.578 128.171,215.375 129.129,215.132 129.706 C 214.625 130.909,214.234 133.137,214.231 134.833 C 214.229 136.299,213.932 136.510,213.570 135.303 C 213.417 134.792,213.099 134.015,212.864 133.577 C 212.629 133.138,212.437 132.469,212.437 132.089 C 212.437 130.939,211.976 128.773,211.610 128.204 C 211.420 127.910,211.176 126.901,211.066 125.963 C 210.956 125.025,210.625 123.602,210.330 122.801 C 210.034 122.000,209.688 120.527,209.559 119.528 C 209.431 118.529,209.129 117.319,208.888 116.839 C 208.647 116.359,208.384 115.261,208.303 114.398 C 208.217 113.469,207.933 112.355,207.608 111.667 C 207.293 110.999,207.058 110.092,207.056 109.538 C 207.053 108.440,206.544 106.342,206.172 105.894 C 206.036 105.729,205.823 104.701,205.699 103.610 C 205.575 102.518,205.279 101.221,205.041 100.728 C 204.803 100.235,204.511 99.149,204.393 98.315 C 204.239 97.225,204.016 96.605,203.602 96.113 C 203.285 95.736,203.025 95.205,203.025 94.933 C 203.025 94.427,202.337 93.458,201.097 92.216 C 200.714 91.833,200.282 91.297,200.136 91.026 C 199.991 90.754,199.766 90.532,199.636 90.532 C 199.505 90.532,198.987 90.179,198.483 89.748 C 197.979 89.317,197.391 88.964,197.176 88.964 C 196.961 88.964,196.489 88.715,196.128 88.410 C 195.660 88.017,194.991 87.784,193.813 87.603 C 192.902 87.463,192.027 87.243,191.869 87.113 C 191.281 86.634,188.441 86.657,186.918 87.153 C 186.131 87.409,185.246 87.619,184.950 87.619 C 184.242 87.619,183.048 88.127,182.662 88.593 C 182.492 88.797,182.187 88.964,181.983 88.964 C 181.120 88.964,177.473 92.144,176.999 93.311 C 176.844 93.693,176.539 94.135,176.320 94.294 C 176.102 94.452,175.799 95.007,175.648 95.526 C 175.496 96.046,175.183 96.732,174.953 97.052 C 174.701 97.401,174.443 98.341,174.306 99.405 C 174.182 100.379,173.883 101.594,173.643 102.103 C 173.402 102.613,173.097 103.975,172.963 105.129 C 172.830 106.283,172.593 107.378,172.437 107.563 C 172.045 108.029,171.913 108.536,171.654 110.578 C 171.530 111.553,171.232 112.760,170.991 113.262 C 170.750 113.763,170.446 115.047,170.315 116.115 C 170.184 117.182,169.883 118.494,169.646 119.029 C 169.409 119.564,169.109 120.851,168.979 121.888 C 168.849 122.925,168.544 124.185,168.301 124.688 C 168.058 125.191,167.760 126.481,167.638 127.554 C 167.517 128.627,167.265 129.739,167.078 130.023 C 166.783 130.473,166.562 131.551,166.131 134.628 L 166.028 135.362 165.368 134.972 C 164.649 134.548,164.635 134.500,164.251 131.093 C 164.119 129.922,163.855 128.662,163.664 128.292 C 163.473 127.922,163.174 126.426,162.999 124.968 C 162.825 123.510,162.521 122.006,162.325 121.626 C 162.128 121.246,161.831 119.760,161.663 118.323 C 161.484 116.786,161.174 115.303,160.909 114.719 C 160.661 114.172,160.455 113.322,160.451 112.829 C 160.441 111.435,160.026 109.133,159.563 107.899 C 159.331 107.283,159.043 105.761,158.923 104.517 C 158.795 103.199,158.539 101.938,158.310 101.494 C 158.093 101.075,157.836 99.939,157.738 98.968 C 157.604 97.635,157.420 97.001,156.987 96.377 C 156.672 95.922,156.415 95.393,156.415 95.201 C 156.415 95.009,156.112 94.471,155.742 94.006 C 155.373 93.540,155.070 93.070,155.070 92.962 C 155.070 92.744,153.074 90.786,151.835 89.788 C 151.403 89.440,150.694 89.057,150.259 88.937 C 149.824 88.817,149.468 88.617,149.468 88.493 C 149.468 88.181,148.050 87.619,147.263 87.619 C 146.906 87.619,145.982 87.417,145.210 87.171 C 143.599 86.656,134.410 86.491,133.532 86.960 C 132.560 87.480,132.655 91.368,133.676 92.927 C 133.882 93.240,134.146 94.216,134.263 95.096 C 134.381 95.975,134.716 97.199,135.008 97.815 C 135.301 98.431,135.602 99.538,135.677 100.275 C 135.753 101.012,136.063 102.140,136.367 102.782 C 136.670 103.425,136.921 104.233,136.924 104.580 C 136.933 105.586,137.363 107.187,137.735 107.598 C 137.923 107.806,138.168 108.703,138.280 109.591 C 138.391 110.480,138.736 111.742,139.045 112.396 C 139.355 113.050,139.610 113.920,139.613 114.328 C 139.621 115.404,140.032 117.025,140.400 117.431 C 140.574 117.624,140.823 118.533,140.952 119.451 C 141.237 121.478,141.358 121.908,141.782 122.391 C 141.963 122.597,142.203 123.501,142.315 124.399 C 142.428 125.297,142.725 126.439,142.974 126.938 C 143.224 127.436,143.532 128.599,143.658 129.524 C 143.786 130.458,144.070 131.457,144.297 131.773 C 144.538 132.110,144.809 133.117,144.959 134.238 C 145.121 135.450,145.373 136.352,145.656 136.737 C 145.915 137.089,146.156 137.880,146.235 138.642 C 146.398 140.210,146.729 141.390,147.136 141.858 C 147.301 142.048,147.499 142.805,147.576 143.539 C 147.739 145.103,148.068 146.307,148.459 146.779 C 148.613 146.964,148.854 147.910,148.994 148.883 C 149.135 149.855,149.448 151.015,149.689 151.460 C 149.930 151.905,150.223 153.005,150.341 153.905 C 150.458 154.804,150.773 155.960,151.041 156.473 C 151.308 156.986,151.582 157.943,151.650 158.601 C 151.853 160.567,151.003 160.448,164.852 160.448 C 178.524 160.448,177.550 160.582,177.814 158.662 C 177.899 158.042,178.067 157.475,178.186 157.401 C 178.542 157.181,178.795 156.303,179.033 154.459 C 179.156 153.501,179.458 152.314,179.703 151.821 C 179.948 151.328,180.251 150.118,180.375 149.132 C 180.500 148.146,180.803 146.936,181.048 146.443 C 181.293 145.950,181.595 144.739,181.720 143.754 C 181.845 142.768,182.151 141.555,182.400 141.060 C 182.649 140.564,182.918 139.505,182.997 138.707 C 183.076 137.908,183.374 136.751,183.660 136.134 C 183.947 135.514,184.247 134.314,184.332 133.445 C 184.415 132.583,184.717 131.373,185.001 130.756 C 185.285 130.140,185.587 128.980,185.672 128.179 C 185.757 127.378,186.058 126.218,186.341 125.602 C 186.624 124.986,186.927 123.784,187.015 122.930 C 187.103 122.077,187.407 120.867,187.690 120.241 C 188.013 119.528,188.263 118.415,188.361 117.255 C 188.537 115.173,188.703 114.979,189.131 116.359 C 189.294 116.882,189.575 117.554,189.756 117.851 C 189.938 118.149,190.176 119.207,190.287 120.204 C 190.398 121.201,190.691 122.420,190.938 122.913 C 191.185 123.406,191.489 124.606,191.615 125.579 C 191.740 126.553,192.077 127.914,192.362 128.605 C 192.648 129.295,192.943 130.557,193.018 131.410 C 193.095 132.276,193.359 133.364,193.617 133.875 C 193.875 134.384,194.178 135.632,194.303 136.690 C 194.434 137.808,194.705 138.893,194.960 139.326 C 195.214 139.757,195.494 140.873,195.635 142.020 C 195.767 143.096,196.073 144.389,196.315 144.892 C 196.556 145.395,196.860 146.655,196.989 147.693 C 197.118 148.731,197.412 149.899,197.641 150.289 C 197.884 150.702,198.163 151.870,198.312 153.090 C 198.461 154.317,198.739 155.475,198.984 155.892 C 199.215 156.282,199.470 157.190,199.552 157.909 C 199.865 160.656,198.756 160.448,213.107 160.448 L 225.185 160.448 225.534 159.950 C 225.725 159.676,225.882 159.279,225.882 159.067 C 225.882 158.855,226.082 158.342,226.327 157.928 C 226.571 157.514,226.880 156.389,227.014 155.428 C 227.147 154.468,227.449 153.314,227.683 152.863 C 227.918 152.413,228.212 151.322,228.337 150.439 C 228.462 149.556,228.762 148.497,229.004 148.086 C 229.249 147.669,229.539 146.565,229.660 145.586 C 229.779 144.621,230.021 143.663,230.198 143.457 C 230.659 142.919,230.809 142.407,231.039 140.596 C 231.151 139.714,231.441 138.652,231.684 138.235 C 231.926 137.819,232.231 136.707,232.360 135.764 C 232.489 134.821,232.792 133.712,233.033 133.299 C 233.275 132.887,233.539 131.894,233.621 131.092 C 233.704 130.281,234.002 129.179,234.293 128.604 C 234.581 128.036,234.883 126.927,234.965 126.139 C 235.047 125.351,235.342 124.252,235.621 123.697 C 235.899 123.143,236.240 121.933,236.378 121.008 C 236.516 120.084,236.829 118.924,237.075 118.431 C 237.321 117.938,237.588 116.930,237.670 116.190 C 237.751 115.451,238.053 114.340,238.341 113.721 C 238.628 113.102,238.931 111.993,239.013 111.256 C 239.095 110.519,239.401 109.402,239.693 108.774 C 239.985 108.146,240.287 106.987,240.365 106.197 C 240.442 105.408,240.698 104.442,240.933 104.050 C 241.168 103.658,241.501 102.499,241.672 101.473 C 241.844 100.447,242.186 99.223,242.432 98.752 C 242.679 98.281,242.950 97.222,243.035 96.399 C 243.119 95.576,243.374 94.594,243.601 94.219 C 243.829 93.843,244.128 92.784,244.268 91.866 C 244.507 90.286,245.419 87.925,245.929 87.566 C 246.057 87.476,248.424 87.400,251.187 87.398 C 256.580 87.395,259.563 87.046,260.616 86.295 C 260.924 86.075,261.505 85.726,261.907 85.518 C 262.848 85.031,264.975 82.904,265.462 81.963 C 265.670 81.561,266.021 80.980,266.242 80.672 C 267.100 79.478,267.563 75.704,267.563 69.910 L 267.563 64.549 266.902 64.207 C 266.193 63.841,256.239 63.736,254.566 64.077 M266.544 64.350 L 267.115 64.610 267.108 69.896 C 267.099 76.339,266.754 79.414,265.902 80.644 C 265.583 81.104,265.322 81.608,265.322 81.764 C 265.322 82.224,262.478 84.987,261.451 85.524 C 258.819 86.902,259.442 86.808,252.301 86.902 C 246.012 86.986,245.659 86.969,245.506 86.576 C 245.418 86.349,245.357 83.167,245.370 79.506 L 245.395 72.850 246.302 71.063 C 247.496 68.710,250.698 65.434,251.804 65.434 C 252.038 65.434,252.630 65.228,253.118 64.976 C 253.606 64.724,254.359 64.431,254.790 64.326 C 256.031 64.023,265.871 64.043,266.544 64.350 M145.903 87.863 C 147.155 88.026,148.051 88.278,148.574 88.616 C 149.007 88.895,149.612 89.202,149.919 89.298 C 150.927 89.614,153.931 92.215,154.671 93.413 C 154.943 93.853,155.346 94.393,155.566 94.614 C 155.786 94.834,155.966 95.142,155.966 95.297 C 155.966 95.453,156.257 96.184,156.612 96.922 C 157.043 97.819,157.308 98.805,157.410 99.897 C 157.495 100.795,157.795 102.308,158.078 103.258 C 158.361 104.208,158.665 105.742,158.754 106.667 C 158.843 107.591,159.109 108.925,159.346 109.630 C 159.583 110.336,159.921 112.013,160.098 113.356 C 160.274 114.699,160.578 116.179,160.772 116.645 C 160.967 117.110,161.234 118.459,161.365 119.642 C 161.496 120.825,161.805 122.390,162.050 123.121 C 162.296 123.851,162.598 125.364,162.723 126.482 C 162.848 127.600,163.138 129.052,163.368 129.708 C 163.598 130.364,163.839 131.322,163.903 131.837 C 164.537 136.939,164.480 136.715,165.236 137.034 C 166.144 137.417,166.186 137.336,166.580 134.522 C 166.751 133.300,167.056 131.979,167.259 131.586 C 167.462 131.194,167.733 130.040,167.862 129.022 C 167.990 128.004,168.293 126.694,168.534 126.111 C 168.775 125.529,169.084 124.221,169.220 123.207 C 169.357 122.192,169.663 120.908,169.901 120.354 C 170.138 119.799,170.434 118.535,170.558 117.545 C 170.682 116.554,170.972 115.319,171.202 114.800 C 171.431 114.281,171.733 113.071,171.871 112.110 C 172.010 111.150,172.364 109.658,172.657 108.796 C 172.951 107.933,173.249 106.649,173.320 105.943 C 173.390 105.237,173.645 104.159,173.886 103.548 C 174.127 102.937,174.426 101.626,174.550 100.635 C 174.675 99.643,174.967 98.452,175.201 97.988 C 175.434 97.523,175.798 96.613,176.010 95.966 C 176.221 95.319,176.485 94.790,176.596 94.790 C 176.707 94.790,176.991 94.412,177.227 93.950 C 177.580 93.260,179.486 91.294,181.064 89.991 C 183.745 87.779,192.045 86.816,194.913 88.384 C 195.246 88.566,196.022 88.973,196.639 89.288 C 199.121 90.559,202.327 93.808,202.728 95.462 C 202.803 95.770,203.099 96.429,203.385 96.925 C 203.678 97.433,203.970 98.413,204.053 99.166 C 204.134 99.902,204.431 101.109,204.714 101.849 C 204.997 102.588,205.335 104.026,205.467 105.045 C 205.598 106.063,205.868 107.210,206.067 107.595 C 206.266 107.980,206.559 109.166,206.720 110.231 C 206.880 111.296,207.180 112.569,207.387 113.059 C 207.594 113.549,207.909 114.840,208.087 115.929 C 208.266 117.018,208.560 118.196,208.741 118.546 C 208.922 118.896,209.213 120.135,209.388 121.299 C 209.563 122.462,209.873 123.737,210.076 124.131 C 210.280 124.525,210.586 125.773,210.756 126.905 C 210.927 128.037,211.263 129.417,211.504 129.972 C 211.744 130.527,212.008 131.638,212.089 132.441 C 212.243 133.960,213.483 137.380,213.935 137.530 C 214.280 137.645,214.408 137.169,214.667 134.790 C 214.788 133.681,215.088 132.149,215.332 131.387 C 215.577 130.624,215.847 129.212,215.932 128.249 C 216.017 127.286,216.312 125.793,216.588 124.930 C 216.864 124.067,217.163 122.564,217.251 121.589 C 217.339 120.614,217.640 119.051,217.919 118.116 C 218.198 117.180,218.496 115.709,218.581 114.846 C 218.666 113.983,218.976 112.420,219.269 111.373 C 219.563 110.325,219.872 108.711,219.957 107.787 C 220.042 106.863,220.340 105.401,220.618 104.538 C 220.896 103.675,221.195 102.162,221.281 101.176 C 221.372 100.140,221.656 98.864,221.955 98.151 C 222.239 97.473,222.583 96.507,222.718 96.003 C 222.854 95.499,223.168 94.904,223.415 94.680 C 223.663 94.456,223.866 94.159,223.866 94.021 C 223.866 93.405,228.021 89.608,229.022 89.309 C 229.329 89.218,229.933 88.910,230.364 88.626 C 231.461 87.903,233.999 87.619,239.358 87.619 C 244.442 87.619,244.740 87.729,244.255 89.422 C 244.133 89.846,244.033 90.496,244.031 90.867 C 244.030 91.237,243.787 92.060,243.492 92.695 C 243.196 93.329,242.842 94.574,242.704 95.461 C 242.567 96.348,242.299 97.374,242.110 97.740 C 241.920 98.107,241.619 99.181,241.441 100.128 C 241.262 101.074,240.918 102.316,240.675 102.887 C 240.433 103.458,240.167 104.517,240.084 105.240 C 240.002 105.963,239.699 107.091,239.413 107.746 C 239.126 108.401,238.825 109.460,238.744 110.099 C 238.663 110.738,238.370 111.815,238.091 112.493 C 237.813 113.171,237.512 114.280,237.423 114.958 C 237.334 115.636,237.031 116.745,236.751 117.423 C 236.470 118.101,236.169 119.210,236.081 119.888 C 235.994 120.566,235.723 121.574,235.480 122.129 C 235.236 122.683,234.899 123.911,234.731 124.857 C 234.563 125.802,234.228 127.012,233.988 127.546 C 233.747 128.079,233.478 129.070,233.389 129.748 C 233.300 130.426,233.000 131.535,232.721 132.213 C 232.443 132.891,232.146 133.991,232.061 134.658 C 231.977 135.326,231.675 136.435,231.390 137.123 C 231.105 137.812,230.805 138.980,230.722 139.720 C 230.640 140.459,230.384 141.428,230.153 141.873 C 229.922 142.317,229.579 143.493,229.392 144.486 C 229.205 145.478,228.897 146.589,228.708 146.955 C 228.519 147.320,228.254 148.310,228.119 149.156 C 227.984 150.001,227.676 151.140,227.435 151.686 C 227.193 152.232,226.885 153.393,226.750 154.266 C 226.615 155.140,226.324 156.210,226.103 156.644 C 225.882 157.078,225.630 157.907,225.543 158.485 C 225.299 160.112,226.014 160.025,213.020 160.006 C 198.949 159.986,200.277 160.263,199.896 157.261 C 199.782 156.364,199.488 155.176,199.242 154.621 C 198.996 154.066,198.694 152.805,198.570 151.820 C 198.446 150.834,198.144 149.574,197.898 149.019 C 197.652 148.464,197.347 147.180,197.220 146.166 C 197.093 145.152,196.796 143.943,196.561 143.478 C 196.325 143.013,196.022 141.800,195.886 140.782 C 195.750 139.764,195.476 138.616,195.278 138.231 C 195.079 137.847,194.782 136.638,194.617 135.545 C 194.453 134.452,194.152 133.230,193.948 132.830 C 193.743 132.429,193.432 131.161,193.256 130.012 C 193.080 128.863,192.776 127.614,192.581 127.237 C 192.386 126.860,192.095 125.671,191.933 124.594 C 191.771 123.517,191.472 122.314,191.268 121.920 C 191.065 121.526,190.757 120.262,190.584 119.111 C 190.369 117.681,190.039 116.551,189.541 115.540 C 188.528 113.486,188.428 113.546,188.019 116.454 C 187.895 117.339,187.602 118.549,187.369 119.143 C 187.136 119.738,186.873 120.779,186.785 121.457 C 186.696 122.134,186.391 123.395,186.105 124.258 C 185.820 125.120,185.470 126.523,185.329 127.375 C 185.188 128.227,184.917 129.225,184.726 129.593 C 184.536 129.961,184.238 131.145,184.064 132.223 C 183.891 133.301,183.557 134.622,183.322 135.159 C 183.087 135.695,182.824 136.739,182.737 137.479 C 182.650 138.218,182.350 139.378,182.071 140.056 C 181.791 140.734,181.490 141.944,181.401 142.745 C 181.312 143.546,181.011 144.756,180.733 145.434 C 180.455 146.112,180.163 147.247,180.084 147.955 C 180.005 148.664,179.704 149.874,179.416 150.644 C 179.128 151.415,178.826 152.625,178.744 153.333 C 178.662 154.042,178.344 155.290,178.037 156.105 C 177.730 156.921,177.479 157.936,177.479 158.361 C 177.479 160.132,178.477 160.000,165.059 160.000 C 151.200 160.000,152.322 160.199,151.929 157.670 C 151.797 156.819,151.496 155.700,151.261 155.182 C 151.025 154.664,150.721 153.547,150.585 152.698 C 150.450 151.850,150.134 150.700,149.884 150.144 C 149.634 149.587,149.341 148.522,149.232 147.776 C 149.123 147.030,148.835 145.970,148.591 145.419 C 148.348 144.869,148.038 143.727,147.903 142.881 C 147.768 142.036,147.499 141.038,147.306 140.664 C 147.112 140.290,146.816 139.194,146.647 138.228 C 146.479 137.263,146.148 136.095,145.913 135.632 C 145.677 135.169,145.374 134.075,145.239 133.202 C 145.104 132.329,144.796 131.167,144.554 130.621 C 144.313 130.075,144.005 128.938,143.870 128.094 C 143.735 127.250,143.439 126.193,143.212 125.745 C 142.984 125.297,142.725 124.375,142.635 123.697 C 142.545 123.020,142.241 121.910,141.961 121.232 C 141.680 120.555,141.379 119.445,141.291 118.768 C 141.204 118.090,140.938 117.087,140.700 116.540 C 140.462 115.993,140.121 114.706,139.942 113.681 C 139.764 112.656,139.463 111.518,139.274 111.153 C 139.085 110.787,138.786 109.736,138.611 108.817 C 138.435 107.898,138.128 106.830,137.928 106.444 C 137.728 106.058,137.426 104.948,137.255 103.978 C 137.084 103.007,136.785 101.905,136.591 101.529 C 136.396 101.152,136.095 100.030,135.921 99.034 C 135.747 98.038,135.441 96.973,135.241 96.667 C 135.041 96.362,134.741 95.274,134.575 94.250 C 134.410 93.226,134.110 92.071,133.910 91.684 C 133.276 90.458,133.053 88.746,133.449 88.142 C 133.844 87.539,141.997 87.357,145.903 87.863 " stroke="none" fill="#a0a9b2" fill-rule="evenodd"></path><path id="path4" d="M133.449 88.142 C 133.053 88.746,133.276 90.458,133.910 91.684 C 134.110 92.071,134.410 93.226,134.575 94.250 C 134.741 95.274,135.041 96.362,135.241 96.667 C 135.441 96.973,135.747 98.038,135.921 99.034 C 136.095 100.030,136.396 101.152,136.591 101.529 C 136.785 101.905,137.084 103.007,137.255 103.978 C 137.426 104.948,137.728 106.058,137.928 106.444 C 138.128 106.830,138.435 107.898,138.611 108.817 C 138.786 109.736,139.085 110.787,139.274 111.153 C 139.463 111.518,139.764 112.656,139.942 113.681 C 140.121 114.706,140.462 115.993,140.700 116.540 C 140.938 117.087,141.204 118.090,141.291 118.768 C 141.379 119.445,141.680 120.555,141.961 121.232 C 142.241 121.910,142.545 123.020,142.635 123.697 C 142.725 124.375,142.984 125.297,143.212 125.745 C 143.439 126.193,143.735 127.250,143.870 128.094 C 144.005 128.938,144.313 130.075,144.554 130.621 C 144.796 131.167,145.104 132.329,145.239 133.202 C 145.374 134.075,145.677 135.169,145.913 135.632 C 146.148 136.095,146.479 137.263,146.647 138.228 C 146.816 139.194,147.112 140.290,147.306 140.664 C 147.499 141.038,147.768 142.036,147.903 142.881 C 148.038 143.727,148.348 144.869,148.591 145.419 C 148.835 145.970,149.123 147.030,149.232 147.776 C 149.341 148.522,149.634 149.587,149.884 150.144 C 150.134 150.700,150.450 151.850,150.585 152.698 C 150.721 153.547,151.025 154.664,151.261 155.182 C 151.496 155.700,151.797 156.819,151.929 157.670 C 152.322 160.199,151.200 160.000,165.059 160.000 C 178.477 160.000,177.479 160.132,177.479 158.361 C 177.479 157.936,177.730 156.921,178.037 156.105 C 178.344 155.290,178.662 154.042,178.744 153.333 C 178.826 152.625,179.128 151.415,179.416 150.644 C 179.704 149.874,180.005 148.664,180.084 147.955 C 180.163 147.247,180.455 146.112,180.733 145.434 C 181.011 144.756,181.312 143.546,181.401 142.745 C 181.490 141.944,181.791 140.734,182.071 140.056 C 182.350 139.378,182.650 138.218,182.737 137.479 C 182.824 136.739,183.087 135.695,183.322 135.159 C 183.557 134.622,183.891 133.301,184.064 132.223 C 184.238 131.145,184.536 129.961,184.726 129.593 C 184.917 129.225,185.188 128.227,185.329 127.375 C 185.470 126.523,185.820 125.120,186.105 124.258 C 186.391 123.395,186.696 122.134,186.785 121.457 C 186.873 120.779,187.136 119.738,187.369 119.143 C 187.602 118.549,187.895 117.339,188.019 116.454 C 188.428 113.546,188.528 113.486,189.541 115.540 C 190.039 116.551,190.369 117.681,190.584 119.111 C 190.757 120.262,191.065 121.526,191.268 121.920 C 191.472 122.314,191.771 123.517,191.933 124.594 C 192.095 125.671,192.386 126.860,192.581 127.237 C 192.776 127.614,193.080 128.863,193.256 130.012 C 193.432 131.161,193.743 132.429,193.948 132.830 C 194.152 133.230,194.453 134.452,194.617 135.545 C 194.782 136.638,195.079 137.847,195.278 138.231 C 195.476 138.616,195.750 139.764,195.886 140.782 C 196.022 141.800,196.325 143.013,196.561 143.478 C 196.796 143.943,197.093 145.152,197.220 146.166 C 197.347 147.180,197.652 148.464,197.898 149.019 C 198.144 149.574,198.446 150.834,198.570 151.820 C 198.694 152.805,198.996 154.066,199.242 154.621 C 199.488 155.176,199.782 156.364,199.896 157.261 C 200.277 160.263,198.949 159.986,213.020 160.006 C 226.014 160.025,225.299 160.112,225.543 158.485 C 225.630 157.907,225.882 157.078,226.103 156.644 C 226.324 156.210,226.615 155.140,226.750 154.266 C 226.885 153.393,227.193 152.232,227.435 151.686 C 227.676 151.140,227.984 150.001,228.119 149.156 C 228.254 148.310,228.519 147.320,228.708 146.955 C 228.897 146.589,229.205 145.478,229.392 144.486 C 229.579 143.493,229.922 142.317,230.153 141.873 C 230.384 141.428,230.640 140.459,230.722 139.720 C 230.805 138.980,231.105 137.812,231.390 137.123 C 231.675 136.435,231.977 135.326,232.061 134.658 C 232.146 133.991,232.443 132.891,232.721 132.213 C 233.000 131.535,233.300 130.426,233.389 129.748 C 233.478 129.070,233.747 128.079,233.988 127.546 C 234.228 127.012,234.563 125.802,234.731 124.857 C 234.899 123.911,235.236 122.683,235.480 122.129 C 235.723 121.574,235.994 120.566,236.081 119.888 C 236.169 119.210,236.470 118.101,236.751 117.423 C 237.031 116.745,237.334 115.636,237.423 114.958 C 237.512 114.280,237.813 113.171,238.091 112.493 C 238.370 111.815,238.663 110.738,238.744 110.099 C 238.825 109.460,239.126 108.401,239.413 107.746 C 239.699 107.091,240.002 105.963,240.084 105.240 C 240.167 104.517,240.433 103.458,240.675 102.887 C 240.918 102.316,241.262 101.074,241.441 100.128 C 241.619 99.181,241.920 98.107,242.110 97.740 C 242.299 97.374,242.567 96.348,242.704 95.461 C 242.842 94.574,243.196 93.329,243.492 92.695 C 243.787 92.060,244.030 91.237,244.031 90.867 C 244.033 90.496,244.133 89.846,244.255 89.422 C 244.740 87.729,244.442 87.619,239.358 87.619 C 233.999 87.619,231.461 87.903,230.364 88.626 C 229.933 88.910,229.329 89.218,229.022 89.309 C 228.021 89.608,223.866 93.405,223.866 94.021 C 223.866 94.159,223.663 94.456,223.415 94.680 C 223.168 94.904,222.854 95.499,222.718 96.003 C 222.583 96.507,222.239 97.473,221.955 98.151 C 221.656 98.864,221.372 100.140,221.281 101.176 C 221.195 102.162,220.896 103.675,220.618 104.538 C 220.340 105.401,220.042 106.863,219.957 107.787 C 219.872 108.711,219.563 110.325,219.269 111.373 C 218.976 112.420,218.666 113.983,218.581 114.846 C 218.496 115.709,218.198 117.180,217.919 118.116 C 217.640 119.051,217.339 120.614,217.251 121.589 C 217.163 122.564,216.864 124.067,216.588 124.930 C 216.312 125.793,216.017 127.286,215.932 128.249 C 215.847 129.212,215.577 130.624,215.332 131.387 C 215.088 132.149,214.788 133.681,214.667 134.790 C 214.408 137.169,214.280 137.645,213.935 137.530 C 213.483 137.380,212.243 133.960,212.089 132.441 C 212.008 131.638,211.744 130.527,211.504 129.972 C 211.263 129.417,210.927 128.037,210.756 126.905 C 210.586 125.773,210.280 124.525,210.076 124.131 C 209.873 123.737,209.563 122.462,209.388 121.299 C 209.213 120.135,208.922 118.896,208.741 118.546 C 208.560 118.196,208.266 117.018,208.087 115.929 C 207.909 114.840,207.594 113.549,207.387 113.059 C 207.180 112.569,206.880 111.296,206.720 110.231 C 206.559 109.166,206.266 107.980,206.067 107.595 C 205.868 107.210,205.598 106.063,205.467 105.045 C 205.335 104.026,204.997 102.588,204.714 101.849 C 204.431 101.109,204.134 99.902,204.053 99.166 C 203.970 98.413,203.678 97.433,203.385 96.925 C 203.099 96.429,202.803 95.770,202.728 95.462 C 202.327 93.808,199.121 90.559,196.639 89.288 C 196.022 88.973,195.246 88.566,194.913 88.384 C 192.045 86.816,183.745 87.779,181.064 89.991 C 179.486 91.294,177.580 93.260,177.227 93.950 C 176.991 94.412,176.707 94.790,176.596 94.790 C 176.485 94.790,176.221 95.319,176.010 95.966 C 175.798 96.613,175.434 97.523,175.201 97.988 C 174.967 98.452,174.675 99.643,174.550 100.635 C 174.426 101.626,174.127 102.937,173.886 103.548 C 173.645 104.159,173.390 105.237,173.320 105.943 C 173.249 106.649,172.951 107.933,172.657 108.796 C 172.364 109.658,172.010 111.150,171.871 112.110 C 171.733 113.071,171.431 114.281,171.202 114.800 C 170.972 115.319,170.682 116.554,170.558 117.545 C 170.434 118.535,170.138 119.799,169.901 120.354 C 169.663 120.908,169.357 122.192,169.220 123.207 C 169.084 124.221,168.775 125.529,168.534 126.111 C 168.293 126.694,167.990 128.004,167.862 129.022 C 167.733 130.040,167.462 131.194,167.259 131.586 C 167.056 131.979,166.751 133.300,166.580 134.522 C 166.186 137.336,166.144 137.417,165.236 137.034 C 164.480 136.715,164.537 136.939,163.903 131.837 C 163.839 131.322,163.598 130.364,163.368 129.708 C 163.138 129.052,162.848 127.600,162.723 126.482 C 162.598 125.364,162.296 123.851,162.050 123.121 C 161.805 122.390,161.496 120.825,161.365 119.642 C 161.234 118.459,160.967 117.110,160.772 116.645 C 160.578 116.179,160.274 114.699,160.098 113.356 C 159.921 112.013,159.583 110.336,159.346 109.630 C 159.109 108.925,158.843 107.591,158.754 106.667 C 158.665 105.742,158.361 104.208,158.078 103.258 C 157.795 102.308,157.495 100.795,157.410 99.897 C 157.308 98.805,157.043 97.819,156.612 96.922 C 156.257 96.184,155.966 95.453,155.966 95.297 C 155.966 95.142,155.786 94.834,155.566 94.614 C 155.346 94.393,154.943 93.853,154.671 93.413 C 153.931 92.215,150.927 89.614,149.919 89.298 C 149.612 89.202,149.007 88.895,148.574 88.616 C 146.823 87.486,134.140 87.088,133.449 88.142 M147.168 88.414 C 147.567 88.481,147.997 88.728,148.123 88.964 C 148.256 89.211,148.707 89.456,149.190 89.542 C 149.651 89.624,150.304 89.956,150.641 90.280 C 150.978 90.604,151.901 91.423,152.693 92.101 C 153.484 92.779,154.203 93.526,154.291 93.760 C 154.379 93.995,154.703 94.422,155.012 94.709 C 155.362 95.033,155.649 95.628,155.772 96.285 C 155.880 96.866,156.176 97.561,156.429 97.830 C 156.808 98.234,156.923 98.777,157.085 100.931 C 157.239 102.965,157.388 103.712,157.759 104.314 C 158.130 104.914,158.279 105.661,158.431 107.675 C 158.583 109.689,158.733 110.436,159.104 111.036 C 159.475 111.637,159.624 112.385,159.777 114.415 C 159.906 116.121,160.085 117.150,160.297 117.391 C 160.774 117.935,160.874 118.414,161.098 121.197 C 161.245 123.018,161.406 123.842,161.673 124.137 C 162.070 124.576,162.453 126.695,162.460 128.494 C 162.463 129.182,162.667 130.020,163.005 130.735 C 163.425 131.622,163.591 132.486,163.750 134.602 C 163.993 137.827,164.288 138.487,165.487 138.487 C 166.530 138.487,166.733 138.036,166.959 135.214 C 167.104 133.399,167.247 132.765,167.624 132.255 C 167.991 131.758,168.146 131.103,168.287 129.466 C 168.429 127.805,168.581 127.177,168.964 126.658 C 169.357 126.126,169.481 125.583,169.571 124.003 C 169.663 122.390,169.787 121.865,170.229 121.208 C 170.658 120.571,170.812 119.954,170.956 118.295 C 171.085 116.808,171.277 115.960,171.608 115.406 C 171.928 114.871,172.143 113.961,172.285 112.541 C 172.409 111.307,172.628 110.304,172.823 110.076 C 173.326 109.491,173.448 109.000,173.666 106.700 C 173.776 105.535,173.958 104.521,174.070 104.447 C 174.557 104.129,174.829 103.144,174.951 101.261 C 175.053 99.686,175.185 99.115,175.552 98.649 C 175.811 98.321,176.145 97.456,176.294 96.728 C 176.471 95.869,176.727 95.291,177.023 95.084 C 177.274 94.908,177.479 94.617,177.479 94.436 C 177.479 94.255,178.261 93.351,179.216 92.426 C 180.171 91.502,181.208 90.496,181.521 90.191 C 181.835 89.884,182.354 89.636,182.680 89.636 C 183.005 89.636,183.600 89.359,184.003 89.020 L 184.735 88.403 189.362 88.332 L 193.990 88.260 194.648 88.814 C 195.010 89.118,195.737 89.484,196.264 89.626 C 196.791 89.767,197.280 90.034,197.350 90.217 C 197.421 90.401,197.844 90.745,198.291 90.982 C 198.738 91.218,199.557 91.975,200.112 92.664 C 200.667 93.352,201.385 94.215,201.709 94.581 C 202.032 94.947,202.361 95.644,202.438 96.131 C 202.516 96.618,202.786 97.208,203.037 97.442 C 203.395 97.776,203.541 98.324,203.710 99.970 C 203.868 101.505,204.052 102.245,204.395 102.711 C 204.749 103.192,204.908 103.873,205.047 105.488 C 205.188 107.141,205.341 107.779,205.719 108.290 C 206.095 108.798,206.249 109.436,206.388 111.053 C 206.522 112.620,206.697 113.364,207.074 113.975 C 207.449 114.581,207.624 115.317,207.748 116.810 C 207.878 118.381,208.027 118.979,208.424 119.515 C 208.826 120.060,208.965 120.633,209.088 122.257 C 209.209 123.861,209.352 124.458,209.738 124.980 C 210.124 125.502,210.273 126.129,210.419 127.832 C 210.567 129.553,210.703 130.118,211.065 130.503 C 211.426 130.887,211.569 131.478,211.740 133.297 C 211.887 134.857,212.088 135.799,212.361 136.206 C 212.584 136.536,212.933 137.172,213.138 137.619 C 214.032 139.569,214.778 138.785,214.962 135.703 C 215.062 134.026,215.200 133.379,215.590 132.747 C 215.994 132.093,216.120 131.455,216.246 129.412 C 216.374 127.357,216.498 126.732,216.910 126.065 C 217.319 125.402,217.447 124.765,217.579 122.735 C 217.705 120.785,217.853 120.015,218.241 119.286 C 218.618 118.580,218.786 117.752,218.923 115.925 C 219.057 114.121,219.230 113.261,219.597 112.560 C 219.977 111.833,220.133 111.006,220.278 108.935 C 220.433 106.728,220.552 106.135,220.949 105.599 C 221.347 105.061,221.464 104.468,221.624 102.197 C 221.780 99.975,221.900 99.354,222.249 98.967 C 222.487 98.703,222.797 97.888,222.938 97.156 C 223.080 96.424,223.385 95.617,223.617 95.363 C 223.849 95.110,224.107 94.676,224.190 94.401 C 224.320 93.971,226.245 91.948,228.108 90.281 C 228.407 90.013,229.063 89.703,229.564 89.593 C 230.066 89.482,230.647 89.169,230.855 88.897 C 231.300 88.317,242.907 87.892,243.550 88.432 C 243.919 88.742,243.687 91.519,243.257 91.949 C 242.726 92.480,242.465 93.203,242.460 94.159 C 242.452 95.479,242.141 96.714,241.707 97.149 C 241.300 97.556,241.206 97.920,241.016 99.816 C 240.941 100.566,240.679 101.476,240.414 101.904 C 240.104 102.406,239.872 103.325,239.732 104.609 C 239.575 106.051,239.402 106.681,239.065 107.042 C 238.734 107.395,238.554 108.028,238.406 109.351 C 238.261 110.645,238.058 111.368,237.708 111.842 C 237.344 112.334,237.174 112.975,237.063 114.271 C 236.950 115.580,236.782 116.206,236.407 116.713 C 236.033 117.219,235.862 117.852,235.747 119.161 C 235.632 120.474,235.462 121.103,235.085 121.612 C 234.720 122.107,234.521 122.809,234.373 124.131 C 234.234 125.375,234.021 126.163,233.712 126.581 C 233.397 127.007,233.199 127.757,233.074 129.000 C 232.942 130.308,232.755 130.986,232.393 131.476 C 232.020 131.981,231.854 132.612,231.738 133.965 C 231.616 135.387,231.476 135.891,231.088 136.304 C 230.698 136.719,230.549 137.261,230.382 138.876 C 230.218 140.459,230.066 141.027,229.707 141.385 C 229.452 141.640,229.239 141.975,229.234 142.129 C 229.173 143.849,228.785 145.691,228.362 146.263 C 227.996 146.758,227.837 147.373,227.739 148.669 C 227.634 150.049,227.497 150.541,227.080 151.037 C 226.665 151.530,226.511 152.077,226.357 153.599 C 226.220 154.947,226.036 155.672,225.753 155.986 C 225.511 156.253,225.246 157.092,225.102 158.050 L 224.859 159.664 213.139 159.664 L 201.418 159.664 200.912 159.076 C 200.503 158.600,200.380 158.114,200.268 156.524 C 200.158 154.966,200.017 154.392,199.586 153.750 C 199.150 153.101,199.017 152.548,198.914 150.948 C 198.808 149.317,198.696 148.860,198.295 148.434 C 197.893 148.006,197.771 147.504,197.612 145.621 C 197.452 143.722,197.333 143.238,196.919 142.798 C 196.509 142.361,196.395 141.907,196.277 140.246 C 196.167 138.689,196.025 138.077,195.657 137.580 C 195.303 137.100,195.122 136.376,194.954 134.753 C 194.781 133.086,194.621 132.458,194.276 132.091 C 193.921 131.713,193.783 131.129,193.629 129.355 C 193.477 127.604,193.325 126.953,192.949 126.445 C 192.587 125.955,192.417 125.279,192.274 123.752 C 192.131 122.223,191.962 121.550,191.598 121.058 C 191.223 120.551,191.070 119.907,190.927 118.239 C 190.739 116.049,190.285 114.936,189.000 113.521 C 188.388 112.848,187.890 113.651,187.708 115.603 C 187.613 116.624,187.365 117.547,187.002 118.230 C 186.582 119.020,186.442 119.623,186.442 120.650 C 186.441 121.718,186.294 122.311,185.770 123.361 C 185.246 124.412,185.100 125.005,185.099 126.073 C 185.098 127.125,184.961 127.693,184.505 128.538 C 184.066 129.350,183.871 130.120,183.756 131.493 C 183.638 132.907,183.479 133.515,183.092 134.039 C 182.699 134.570,182.547 135.171,182.422 136.677 C 182.296 138.197,182.146 138.782,181.741 139.330 C 181.334 139.881,181.186 140.463,181.056 142.036 C 180.927 143.595,180.777 144.194,180.381 144.729 C 179.991 145.257,179.838 145.851,179.724 147.285 C 179.610 148.719,179.457 149.314,179.067 149.841 C 178.672 150.376,178.522 150.975,178.393 152.533 C 178.265 154.076,178.112 154.693,177.729 155.211 C 177.352 155.720,177.194 156.341,177.075 157.774 L 176.919 159.664 165.078 159.664 L 153.238 159.664 152.833 159.164 C 152.561 158.828,152.376 158.078,152.269 156.868 C 152.157 155.596,151.981 154.906,151.666 154.507 C 151.371 154.131,151.131 153.271,150.947 151.929 C 150.734 150.374,150.560 149.811,150.182 149.458 C 149.843 149.143,149.692 148.738,149.692 148.145 C 149.692 146.775,149.291 145.034,148.822 144.368 C 148.537 143.964,148.337 143.177,148.239 142.073 C 148.132 140.874,147.965 140.259,147.657 139.928 C 147.356 139.605,147.153 138.890,146.990 137.575 C 146.826 136.256,146.597 135.450,146.230 134.902 C 145.839 134.317,145.678 133.700,145.599 132.475 C 145.518 131.234,145.367 130.664,144.983 130.144 C 144.611 129.640,144.426 128.975,144.293 127.655 C 144.166 126.398,143.971 125.664,143.646 125.225 C 143.254 124.695,142.788 122.525,142.752 121.064 C 142.748 120.910,142.528 120.567,142.262 120.302 C 141.881 119.921,141.743 119.417,141.606 117.913 C 141.476 116.488,141.307 115.838,140.937 115.337 C 140.578 114.852,140.391 114.168,140.259 112.865 C 140.132 111.601,139.938 110.875,139.608 110.429 C 139.286 109.993,139.074 109.222,138.931 107.971 C 138.775 106.601,138.602 106.019,138.236 105.630 C 137.860 105.229,137.714 104.709,137.594 103.340 C 137.484 102.085,137.288 101.326,136.923 100.734 C 136.573 100.169,136.354 99.361,136.243 98.230 C 136.124 97.015,135.955 96.426,135.620 96.067 C 135.272 95.694,135.103 95.063,134.926 93.468 C 134.748 91.862,134.583 91.244,134.228 90.867 C 133.687 90.291,133.395 88.870,133.733 88.461 C 133.971 88.175,145.482 88.135,147.168 88.414 " stroke="none" fill="#6c7c8c" fill-rule="evenodd"></path></g></svg>